# xmcd CD database file
#
# Track frame offsets:
#	150
#	17378
#	36209
#	62711
#	80900
#	97851
#	114699
#	137755
#	161314
#	183643
#	198350
#	219770
#
# Disc length: 3383 seconds
#
# Revision: 0
# Processed by: cddbd v1.5.2PL0 Copyright (c) Steve Scherf et al.
# Submitted via: CDex 1.70beta2
#
DISCID=9a0d350c
DTITLE=Philipp Fankhauser - Love Man Riding
DYEAR=2008
DGENRE=Blues
TTITLE0=Love Man Riding
TTITLE1=Im Finished Here
TTITLE2=I Got A Love
TTITLE3=Lonely In This Town
TTITLE4=You Caught Me Off Guard
TTITLE5=I Didnt See (The Best Of You)
TTITLE6=Rio de Janeiro Blue
TTITLE7=One Of Them
TTITLE8=Call On Me
TTITLE9=Are You Outta Your Head
TTITLE10=Easy For You To Say
TTITLE11=The Sundown
EXTD=YEAR: 2008
EXTT0=
EXTT1=
EXTT2=
EXTT3=
EXTT4=
EXTT5=
EXTT6=
EXTT7=
EXTT8=
EXTT9=
EXTT10=
EXTT11=
PLAYORDER=
